<svg xmlns="http://www.w3.org/2000/svg" width="216" height="216" fill="none" viewBox="0 0 216 216"><rect width="211" height="211" x="2.5" y="2.5" stroke="#000" stroke-width="5" rx="7.5"/><rect width="182" height="26.308" x="17" y="127" stroke="#CCC" stroke-width="2" rx="4"/><rect width="182" height="26.308" x="17" y="93" stroke="#CCC" stroke-width="2" rx="4"/><rect width="182" height="26.308" x="17" y="61" stroke="#CCC" stroke-width="2" rx="4"/><rect width="182" height="26.308" x="17" y="27" stroke="#CCC" stroke-width="2" rx="4"/><line x1="37.893" x2="37.893" y1="190" y2="40" stroke="#01A982" stroke-dasharray="5 5" stroke-width="5"/><line x1="177.5" x2="177.5" y1="190" y2="40" stroke="#444" stroke-dasharray="5 5" stroke-width="5"/><line x1="36.644" x2="178.644" y1="42.117" y2="166.117" stroke="#01A982" stroke-dasharray="5 5" stroke-width="5"/><line x1="177.653" x2="36.653" y1="42.875" y2="167.179" stroke="#444" stroke-dasharray="5 5" stroke-width="5"/><path fill="#01A982" d="M50.5003 44.1819H25.0586C23.1918 44.1819 22.257 42.1354 23.577 40.9386L36.2978 29.4042C37.1161 28.6622 38.4428 28.6622 39.2611 29.4042L51.982 40.9386C53.3019 42.1354 52.3671 44.1819 50.5003 44.1819Z"/><path fill="#444" d="M190.5 44H165.059C163.192 44 162.257 41.9535 163.577 40.7567L176.298 29.2223C177.116 28.4803 178.443 28.4803 179.261 29.2223L191.982 40.7567C193.302 41.9535 192.367 44 190.5 44Z"/><rect width="162" height="28" x="27" y="162" fill="#444" rx="5"/><path fill="#01A982" d="M63.6523 162H152.348V178H63.6523V162Z"/><path fill="#01A982" d="M48 162H63.6522V178H48V162Z"/><path fill="#01A982" d="M152.348 162H168V178H152.348V162Z"/><path fill="#01A982" d="M63.6523 178H152.348V190H63.6523V178Z"/><path fill="#00C781" d="M63.5557 162.157H152.445V177.916H63.5557V162.157Z"/></svg>